<?xml version="1.0" encoding="UTF-8" standalone="no"?>
<!DOCTYPE svg PUBLIC "-//W3C//DTD SVG 1.1//EN" "http://www.w3.org/Graphics/SVG/1.1/DTD/svg11.dtd">
<svg width="100%" height="100%" viewBox="0 0 1000 1080" version="1.1" xmlns="http://www.w3.org/2000/svg" xmlns:xlink="http://www.w3.org/1999/xlink" xml:space="preserve" xmlns:serif="http://www.serif.com/" style="fill-rule:evenodd;clip-rule:evenodd;stroke-linecap:round;stroke-linejoin:round;stroke-miterlimit:1.5;">
    <g transform="matrix(1.00956,0,0,1.00956,-9.87295,14.5859)">
        <g transform="matrix(0.649776,0.496191,-0.447384,0.585862,649.54,333.004)">
            <path d="M172.095,915.333C111.226,894.236 57.162,842.689 57.162,774.679C57.162,696.47 115.021,631.668 190.234,620.781C150.617,646.433 122.524,710.314 122.524,784.978C122.524,840.093 148.144,883.009 172.095,915.333Z" style="fill:rgb(246,143,43);"/>
            <clipPath id="_clip1">
                <path d="M172.095,915.333C111.226,894.236 57.162,842.689 57.162,774.679C57.162,696.47 115.021,631.668 190.234,620.781C150.617,646.433 122.524,710.314 122.524,784.978C122.524,840.093 148.144,883.009 172.095,915.333Z"/>
            </clipPath>
            <g clip-path="url(#_clip1)">
                <g transform="matrix(1.01908,-0.8631,0.73137,1.06223,-865.192,142.086)">
                    <circle cx="425.816" cy="633.12" r="282.563" style="fill:rgb(206,100,8);"/>
                </g>
            </g>
            <path d="M172.095,915.333C111.226,894.236 57.162,842.689 57.162,774.679C57.162,696.47 115.021,631.668 190.234,620.781C150.617,646.433 122.524,710.314 122.524,784.978C122.524,840.093 148.144,883.009 172.095,915.333Z" style="fill:none;stroke:black;stroke-width:25.45px;"/>
        </g>
        <g transform="matrix(0.567307,0.588708,-0.530801,0.511505,661.615,383.414)">
            <path d="M186.155,918.413C125.286,897.316 57.162,842.689 57.162,774.679C57.162,696.47 115.021,631.668 190.234,620.781C150.617,646.433 130.903,704.265 130.903,778.929C130.903,834.044 162.203,886.089 186.155,918.413Z" style="fill:rgb(246,143,43);"/>
            <clipPath id="_clip2">
                <path d="M186.155,918.413C125.286,897.316 57.162,842.689 57.162,774.679C57.162,696.47 115.021,631.668 190.234,620.781C150.617,646.433 130.903,704.265 130.903,778.929C130.903,834.044 162.203,886.089 186.155,918.413Z"/>
            </clipPath>
            <g clip-path="url(#_clip2)">
                <g transform="matrix(0.889738,-1.02403,0.867738,0.927416,-890.534,249.844)">
                    <circle cx="425.816" cy="633.12" r="282.563" style="fill:rgb(206,100,8);"/>
                </g>
            </g>
            <path d="M186.155,918.413C125.286,897.316 57.162,842.689 57.162,774.679C57.162,696.47 115.021,631.668 190.234,620.781C150.617,646.433 130.903,704.265 130.903,778.929C130.903,834.044 162.203,886.089 186.155,918.413Z" style="fill:none;stroke:black;stroke-width:25.45px;"/>
        </g>
        <g transform="matrix(0.888193,-0.512799,0.364711,0.631697,99.2063,475.743)">
            <path d="M109.138,658.683C136.642,634.114 172.925,619.171 212.67,619.171C298.497,619.171 368.178,688.852 368.178,774.679C368.178,829.312 339.944,877.403 297.284,905.143C311.274,879.629 319.319,849.78 319.319,817.893C319.319,724.049 249.638,647.86 163.811,647.86C144.575,647.86 126.15,651.687 109.138,658.683Z" style="fill:rgb(246,143,43);"/>
            <clipPath id="_clip3">
                <path d="M109.138,658.683C136.642,634.114 172.925,619.171 212.67,619.171C298.497,619.171 368.178,688.852 368.178,774.679C368.178,829.312 339.944,877.403 297.284,905.143C311.274,879.629 319.319,849.78 319.319,817.893C319.319,724.049 249.638,647.86 163.811,647.86C144.575,647.86 126.15,651.687 109.138,658.683Z"/>
            </clipPath>
            <g clip-path="url(#_clip3)">
                <g transform="matrix(0.885204,0.71859,-0.480316,1.16973,174.618,-632.032)">
                    <circle cx="425.816" cy="633.12" r="282.563" style="fill:rgb(206,100,8);"/>
                </g>
            </g>
            <path d="M109.138,658.683C136.642,634.114 172.925,619.171 212.67,619.171C298.497,619.171 368.178,688.852 368.178,774.679C368.178,829.312 339.944,877.403 297.284,905.143C311.274,879.629 319.319,849.78 319.319,817.893C319.319,724.049 249.638,647.86 163.811,647.86C144.575,647.86 126.15,651.687 109.138,658.683Z" style="fill:none;stroke:black;stroke-width:22.26px;"/>
        </g>
        <g transform="matrix(0.930189,0,0,0.755663,441.541,228.859)">
            <path d="M57.924,759.2C65.703,680.628 132.066,619.171 212.67,619.171C298.497,619.171 368.178,688.852 368.178,774.679C368.178,812.297 354.792,846.812 332.529,873.719C332.642,870.736 332.7,867.736 332.7,864.719C332.7,761.442 265.263,677.594 182.2,677.594C130.608,677.594 85.044,709.941 57.924,759.2Z" style="fill:rgb(246,143,43);"/>
            <clipPath id="_clip4">
                <path d="M57.924,759.2C65.703,680.628 132.066,619.171 212.67,619.171C298.497,619.171 368.178,688.852 368.178,774.679C368.178,812.297 354.792,846.812 332.529,873.719C332.642,870.736 332.7,867.736 332.7,864.719C332.7,761.442 265.263,677.594 182.2,677.594C130.608,677.594 85.044,709.941 57.924,759.2Z"/>
            </clipPath>
            <g clip-path="url(#_clip4)">
                <g transform="matrix(1.12699,0,0,1.30378,-449.102,-320.134)">
                    <circle cx="425.816" cy="633.12" r="282.563" style="fill:rgb(206,100,8);"/>
                </g>
            </g>
            <path d="M57.924,759.2C65.703,680.628 132.066,619.171 212.67,619.171C298.497,619.171 368.178,688.852 368.178,774.679C368.178,812.297 354.792,846.812 332.529,873.719C332.642,870.736 332.7,867.736 332.7,864.719C332.7,761.442 265.263,677.594 182.2,677.594C130.608,677.594 85.044,709.941 57.924,759.2Z" style="fill:none;stroke:black;stroke-width:23.38px;"/>
        </g>
        <g transform="matrix(0.517974,0,0,0.460244,718.823,126.668)">
            <path d="M54.957,747.973C56.031,663.068 127.511,619.171 212.67,619.171C298.497,619.171 368.178,696.542 368.178,793.135C368.178,859.289 298.497,1016.09 212.67,1016.09C201.978,1016.09 145.112,1118.4 30.855,1065.06C-19.555,1041.53 38.236,993.141 18.085,935.48C29.298,932.246 104.71,892.389 104.71,846.724C82.074,819.37 54.957,804.657 54.957,747.973Z" style="fill:rgb(246,143,43);"/>
            <clipPath id="_clip5">
                <path d="M54.957,747.973C56.031,663.068 127.511,619.171 212.67,619.171C298.497,619.171 368.178,696.542 368.178,793.135C368.178,859.289 298.497,1016.09 212.67,1016.09C201.978,1016.09 145.112,1118.4 30.855,1065.06C-19.555,1041.53 38.236,993.141 18.085,935.48C29.298,932.246 104.71,892.389 104.71,846.724C82.074,819.37 54.957,804.657 54.957,747.973Z"/>
            </clipPath>
            <g clip-path="url(#_clip5)">
                <g transform="matrix(1.9306,-6.03062e-17,5.35849e-17,2.17276,-1387.76,-275.22)">
                    <path d="M765.821,540C758.344,585.307 790.392,607.963 816.663,601.754C825.413,593.003 766.198,634.237 757.725,623.945C749.251,613.653 747.739,547.557 765.821,540Z" style="fill:rgb(206,100,8);"/>
                </g>
            </g>
            <path d="M54.957,747.973C56.031,663.068 127.511,619.171 212.67,619.171C298.497,619.171 368.178,696.542 368.178,793.135C368.178,859.289 298.497,1016.09 212.67,1016.09C201.978,1016.09 145.112,1118.4 30.855,1065.06C-19.555,1041.53 38.236,993.141 18.085,935.48C29.298,932.246 104.71,892.389 104.71,846.724C82.074,819.37 54.957,804.657 54.957,747.973Z" style="fill:none;stroke:black;stroke-width:40.43px;"/>
        </g>
        <path d="M195.139,511.213C181.913,492.443 168.524,448.438 171.843,444.619C175.244,440.705 225.727,433.741 246.182,439.589C246.534,439.199 246.888,438.809 247.243,438.421C246.828,411.346 249.975,368.819 254.818,367.15C259.052,365.691 299.343,371.483 321.19,380.322C330.517,353.711 348.765,313.808 353.794,313.79C358.908,313.772 404.869,333.954 417.86,348.556C433.916,330.093 471.309,296.065 476.505,298.598C480.535,300.563 509.004,330.037 520.539,349.877C541.851,335.928 594.984,313.745 599.49,317.375C603.033,320.228 613.855,359.526 614.17,383.18C639.313,377.388 692.451,376.748 695.604,381.42C698.018,384.998 697.273,423.354 691.625,447.456C727.055,489.992 748.055,542.832 748.055,600.056C748.055,740.566 621.443,854.643 465.492,854.643C314.486,854.643 190.987,747.685 183.308,613.338C163.872,601.682 131.018,558.313 132.018,553.164C132.984,548.191 173.35,517.636 195.139,511.213Z" style="fill:rgb(246,143,43);stroke:black;stroke-width:19.81px;"/>
        <g transform="matrix(0.946012,0.253483,-0.258819,0.965926,208.631,-30.4898)">
            <path d="M296.432,901.37C296.508,901.39 246.711,930.187 212.67,930.187C138.218,930.187 66.736,882.118 58.526,796.846C50.436,779.477 49.909,758.485 49.856,738.318C49.708,681.77 115.343,608.651 198.682,608.442C240.627,608.337 278.643,624.392 306.085,650.38C187.009,650.38 132.313,710.542 140.297,720.352C148.281,730.162 253.995,667.944 309.321,801.462C315.379,816.082 316.392,837.968 310.307,859.566C309.692,858.832 309.016,858.13 308.277,857.463C257.312,811.519 197.63,807.224 189.527,815.161C181.423,823.098 235.376,885.878 296.432,901.37Z" style="fill:rgb(246,143,43);"/>
            <clipPath id="_clip6">
                <path d="M296.432,901.37C296.508,901.39 246.711,930.187 212.67,930.187C138.218,930.187 66.736,882.118 58.526,796.846C50.436,779.477 49.909,758.485 49.856,738.318C49.708,681.77 115.343,608.651 198.682,608.442C240.627,608.337 278.643,624.392 306.085,650.38C187.009,650.38 132.313,710.542 140.297,720.352C148.281,730.162 253.995,667.944 309.321,801.462C315.379,816.082 316.392,837.968 310.307,859.566C309.692,858.832 309.016,858.13 308.277,857.463C257.312,811.519 197.63,807.224 189.527,815.161C181.423,823.098 235.376,885.878 296.432,901.37Z"/>
            </clipPath>
            <g clip-path="url(#_clip6)">
                <g transform="matrix(0.986259,-0.258819,0.264267,0.965926,-197.707,83.4487)">
                    <path d="M64.017,752.509C81.042,863.364 199.297,906.76 230.046,898.68C235.784,904.125 249.269,919.605 241.14,920.605C224.798,922.615 160.452,921.734 131.996,910.74C106.091,900.732 81.361,880.159 70.399,854.643C59.069,828.271 31.868,748.378 64.017,752.509Z" style="fill:rgb(206,100,8);"/>
                </g>
                <g transform="matrix(0.986259,-0.258819,0.264267,0.965926,-197.707,83.4487)">
                    <path d="M167.986,808.523C159.52,796.708 196.469,777.248 229.404,794.861C247.726,804.659 271.413,833.263 280.205,865.755C269.969,868.032 176.453,820.339 167.986,808.523Z" style="fill:rgb(206,100,8);"/>
                </g>
                <g transform="matrix(0.986259,-0.258819,0.264267,0.965926,-197.707,83.4487)">
                    <path d="M193.259,613.31C160.935,617.197 135.382,631.358 112.752,657.009C88.925,684.018 71.781,719.873 67.707,753.703C53.888,758.52 73.533,672.894 94.459,649.495C115.384,626.096 162.199,602.881 193.259,613.31Z" style="fill:rgb(248,174,88);"/>
                </g>
            </g>
            <path d="M296.432,901.37C296.508,901.39 246.711,930.187 212.67,930.187C138.218,930.187 66.736,882.118 58.526,796.846C50.436,779.477 49.909,758.485 49.856,738.318C49.708,681.77 115.343,608.651 198.682,608.442C240.627,608.337 278.643,624.392 306.085,650.38C187.009,650.38 132.313,710.542 140.297,720.352C148.281,730.162 253.995,667.944 309.321,801.462C315.379,816.082 316.392,837.968 310.307,859.566C309.692,858.832 309.016,858.13 308.277,857.463C257.312,811.519 197.63,807.224 189.527,815.161C181.423,823.098 235.376,885.878 296.432,901.37Z" style="fill:none;stroke:black;stroke-width:20.02px;"/>
        </g>
        <g transform="matrix(0.963214,0,0,0.873302,55.2961,48.8497)">
            <circle cx="425.816" cy="633.12" r="282.563" style="fill:rgb(246,143,43);"/>
        </g>
        <g transform="matrix(0.963214,0,0,0.873302,55.2961,48.8497)">
            <path d="M143.253,646.248C101.553,601.52 97.08,588.126 113.927,569.544C139.289,569.544 142.439,541.422 165.778,537.127C206.332,430.739 305.259,350.556 425.816,350.556C452.137,350.556 477.623,354.163 501.805,360.909C620.899,394.131 708.379,503.49 708.379,633.12C708.379,789.07 581.767,915.683 425.816,915.683C274.04,915.683 149.783,796.428 143.253,646.248Z" style="fill:rgb(246,143,43);"/>
            <clipPath id="_clip7">
                <path d="M143.253,646.248C101.553,601.52 97.08,588.126 113.927,569.544C139.289,569.544 142.439,541.422 165.778,537.127C206.332,430.739 305.259,350.556 425.816,350.556C452.137,350.556 477.623,354.163 501.805,360.909C620.899,394.131 708.379,503.49 708.379,633.12C708.379,789.07 581.767,915.683 425.816,915.683C274.04,915.683 149.783,796.428 143.253,646.248Z"/>
            </clipPath>
            <g clip-path="url(#_clip7)">
                <g transform="matrix(1.03819,0,0,1.14508,-57.4079,-55.9367)">
                    <path d="M737.617,619.587C663.865,835.738 323.156,838.114 216.391,671.233C202.3,649.208 169.182,675.84 154.651,692.559C118.895,733.7 288.676,873.621 513.919,854.643C712.013,837.952 776.729,566.436 737.617,619.587Z" style="fill:rgb(206,100,8);"/>
                </g>
            </g>
        </g>
        <g transform="matrix(0.965926,-0.258819,0.258819,0.965926,-17.1839,103.77)">
            <path d="M486.945,408.588C486.342,409.273 486.341,409.372 485.432,409.43C485.168,409.447 478.291,405.241 472.763,402.263C470.106,400.832 470.123,400.807 467.451,399.403C467.058,399.196 465.22,398.18 462.547,396.918C461.771,396.552 460.48,395.833 457.573,394.566C457.547,394.554 453.342,392.589 453.298,392.567C449.082,390.452 449.073,390.471 448.709,390.282C448.257,390.048 447.652,389.735 443.003,387.466C441.317,386.643 441.31,386.666 439.623,385.839C437.156,384.63 437.049,384.629 435.441,383.832C430.017,381.147 429.981,381.232 424.536,378.591C422.684,377.692 420.367,376.582 420.363,376.578C419.967,376.237 419.477,375.964 419.215,375.512C419.116,375.342 418.338,374.003 419.848,373.128C420.3,372.866 420.853,372.812 421.373,372.772C421.434,372.767 428.641,373.308 429.178,373.362C437.04,374.15 440.343,374.712 441.307,374.876C446.596,375.776 449.857,376.624 454.325,378.128C455.436,378.502 459.012,380.054 459.318,380.209C461.901,381.521 464.2,382.822 468.783,386.409C469.042,386.611 472.082,389.144 474.519,391.592C478.038,395.126 481.645,399.165 486.644,405.641C487.348,406.553 487.381,407.069 487.39,407.207C487.438,407.969 487.45,408.015 486.945,408.588Z"/>
        </g>
        <g transform="matrix(0.866025,-0.5,0.5,0.866025,-166.02,252.125)">
            <path d="M497.289,413.823C496.834,414.368 496.769,414.315 496.062,414.37C495.14,414.442 495.129,414.389 494.312,413.958C492.376,412.937 480.605,406.66 479.205,405.927C477.676,405.126 476.993,404.701 474.11,403.204C473.423,402.847 472.175,402.104 469.705,400.814C467.214,399.512 465.07,398.139 464.679,397.888C464.379,397.696 464.364,397.725 460.908,395.53C460.034,394.975 456.41,392.747 453.279,391.147C447.691,388.291 443.852,387.051 436.267,383.494C435.463,383.117 435.343,383.23 434.881,382.469C434.872,382.454 434.634,381.024 434.639,381.017C434.943,380.579 435.1,379.984 435.555,379.707C435.72,379.606 435.823,379.544 437.965,379.608C444.325,379.798 450.345,379.602 456.639,380.708C468.209,382.74 475.501,388.61 476.078,389.041C476.461,389.328 477.538,390.133 480.668,392.88C481.741,393.821 486.116,398.047 489.541,402.004C494.756,408.029 497.012,411.021 497.015,411.028C497.594,412.358 497.597,412.39 497.61,412.517C497.681,413.223 497.745,413.278 497.289,413.823Z"/>
        </g>
        <g transform="matrix(-0.0919644,-0.995762,0.995762,-0.0919644,-111.632,996.718)">
            <path d="M485.14,405.346C484.312,405.984 484.258,405.995 483.223,405.86C481.736,405.668 481.962,405.218 480.884,404.178C479.247,402.6 479.235,402.616 477.61,401.023C471.426,394.957 463.488,388.366 457.854,384.424C457.052,383.862 455.709,382.811 453.296,381.214C450.502,379.365 441.867,373.032 426.99,367.054C416.56,362.863 408.021,360.115 394.486,355.982C393.491,355.678 393.785,355.094 394.75,354.703C394.767,354.696 415.07,356.88 427.605,359.839C444.903,363.923 453.132,368.624 458.574,371.941C459.1,372.262 462.861,374.876 464.264,376.041C468.924,379.911 475.434,385.764 483.553,398.336C483.818,398.748 484.954,400.707 485.074,400.914C485.315,401.329 485.316,401.323 485.609,401.701C486.266,402.549 486.147,403.465 486.127,403.623C485.992,404.66 485.968,404.708 485.14,405.346Z" style="fill:rgb(248,174,88);"/>
        </g>
        <g transform="matrix(0.258819,-0.965926,0.965926,0.258819,-197.274,770.061)">
            <path d="M456.433,383.625C455.904,383.525 455.353,383.589 454.825,383.489C454.762,383.477 454.814,383.408 454.223,382.949C446.309,376.794 441.95,374.598 434.19,370.894C432.823,370.242 432.82,370.256 431.465,369.574C430.253,368.965 430.243,368.992 429.034,368.37C427.656,367.66 419.642,363.732 415.503,361.93C410.618,359.802 410.618,359.806 409.222,359.228C408.282,358.839 408.143,358.964 407.632,358.085C407.624,358.072 407.376,356.06 407.381,356.053C407.776,355.541 408.013,354.846 408.572,354.52C409.144,354.187 409.874,354.253 410.535,354.216C410.55,354.216 414.622,354.749 416.567,355.106C420.288,355.789 430.549,357.609 438.378,362.533C439.752,363.397 444.371,366.17 450.446,373.203C450.799,373.612 453.655,377.14 455.485,380.232C456.34,381.675 456.307,381.693 456.393,381.81C456.447,381.882 456.566,381.926 456.568,382.016C456.586,382.827 456.415,382.814 456.433,383.625Z" style="fill:rgb(248,174,88);"/>
        </g>
        <g transform="matrix(0.998288,0.0584972,-0.0584972,0.998288,180.473,-19.1891)">
            <path d="M541.517,464.21C540.931,464.368 537.572,465.274 534.005,463.223C532.906,462.591 531.905,461.738 531.13,460.736C530.885,460.419 529.797,459.013 529.096,456.161C523.067,431.626 492.334,411.525 481.834,404.792C462.666,392.501 435.99,379.894 416.608,375.541C415.948,375.392 415.926,375.376 415.522,374.833C415.512,374.819 415.2,373.645 415.204,373.638C415.418,373.292 415.526,372.846 415.852,372.604C416.601,372.048 416.675,372.203 417.607,372.281C438.396,374.021 471.948,383.617 498.091,398.433C534.07,418.822 544.479,439.648 548.146,450.842C549.058,453.627 548.802,455.573 548.747,455.984C548.669,456.576 548.219,459.985 545.026,462.454C543.453,463.67 543.436,463.692 541.517,464.21Z"/>
        </g>
        <g transform="matrix(0.963214,0,0,0.873302,52.2961,38.8497)">
            <path d="M708.379,633.12C708.379,709.027 667.789,691.695 427.737,691.695C187.685,691.695 201.357,725.348 201.357,650.481C201.357,494.531 269.865,360.909 425.816,360.909C581.767,360.909 708.379,477.169 708.379,633.12Z" style="fill:rgb(246,143,43);"/>
        </g>
        <g>
            <g transform="matrix(0.946012,0.253483,-0.258819,0.965926,208.631,-30.4898)">
                <path d="M140.297,720.352C148.281,730.162 253.995,667.944 309.321,801.462" style="fill:rgb(246,143,43);"/>
                <clipPath id="_clip8">
                    <path d="M140.297,720.352C148.281,730.162 253.995,667.944 309.321,801.462"/>
                </clipPath>
                <g clip-path="url(#_clip8)">
                    <g transform="matrix(0.986259,-0.258819,0.264267,0.965926,-197.707,83.4487)">
                        <path d="M158.436,713.182C155.679,693.853 252.506,733.684 271.556,744.391C281.161,749.789 292.177,783.496 272.736,777.424C235.665,730.303 172.63,711.507 158.436,713.182Z" style="fill:rgb(248,174,88);"/>
                    </g>
                </g>
                <path d="M140.297,720.352C148.281,730.162 253.995,667.944 309.321,801.462" style="fill:none;stroke:black;stroke-width:20.02px;"/>
            </g>
            <g transform="matrix(0.946012,0.253483,-0.258819,0.965926,208.631,-30.4898)">
                <path d="M186.644,667.445C148.755,685.45 135.665,714.661 140.297,720.352C144.725,725.793 179.214,709.078 218.496,715.887" style="fill:rgb(206,100,8);"/>
                <path d="M145.076,715.468C153.29,714.321 168.382,708.88 188.082,706.439C201.647,704.758 212.205,705.19 220.247,706.132C222.02,706.339 223.716,707.404 223.986,707.573C227.456,709.751 228.221,713.107 228.354,713.69C229.279,717.753 227.328,720.726 226.989,721.243C224.768,724.625 221.338,725.388 220.743,725.52C217.729,726.189 217.694,725.828 214.679,725.168C182.631,718.16 153.619,728.557 142.366,727.191C131.999,725.933 130.377,714.822 141.145,699.304C149.076,687.875 163.508,674.668 184.969,665.193C186.219,664.642 186.269,664.465 187.566,664.902C187.582,664.908 189.15,666.25 189.151,666.258C189.188,666.938 189.483,667.654 189.256,668.298C188.811,669.563 188.638,669.491 187.433,670.119C157.897,685.509 146.092,707.161 145.076,715.468Z"/>
            </g>
        </g>
        <g transform="matrix(1.0953,-0.235669,0.235669,1.0953,384.344,70.2695)">
            <path d="M320.162,703.471L320.162,710.971L320.074,710.971C320.16,712.491 320.084,714.039 319.834,715.6C317.787,728.347 304.841,737.1 290.943,735.135C277.955,733.298 268.701,722.748 269.215,710.971L269.126,710.971L269.126,308.489C215.708,296.796 175.67,249.168 175.67,192.263C175.67,126.599 228.981,73.288 294.644,73.288C360.308,73.288 413.618,126.599 413.618,192.263C413.618,249.168 373.581,296.796 320.162,308.489L320.162,593.788L369.281,593.788L369.281,631.704L334.582,631.704L334.582,665.556L369.281,665.556L369.281,703.471L320.162,703.471ZM294.644,251.75C327.476,251.75 354.131,225.094 354.131,192.263C354.131,159.431 327.476,132.776 294.644,132.776C261.812,132.776 235.157,159.431 235.157,192.263C235.157,225.094 261.812,251.75 294.644,251.75Z" style="fill:rgb(243,181,64);stroke:black;stroke-width:17.68px;"/>
        </g>
        <g transform="matrix(0.517974,0,0,0.460244,718.823,126.668)">
            <path d="M126.131,777.755C127.055,704.738 152.042,625.204 212.67,619.171C297.976,620.905 368.178,696.542 368.178,793.135C368.178,844.096 340.557,948.465 282.33,993.894C264.97,1007.44 265.156,888.47 240.108,845.646C198.938,775.257 126.947,777.035 126.131,777.755Z" style="fill:rgb(246,143,43);"/>
            <clipPath id="_clip9">
                <path d="M126.131,777.755C127.055,704.738 152.042,625.204 212.67,619.171C297.976,620.905 368.178,696.542 368.178,793.135C368.178,844.096 340.557,948.465 282.33,993.894C264.97,1007.44 265.156,888.47 240.108,845.646C198.938,775.257 126.947,777.035 126.131,777.755Z"/>
            </clipPath>
            <g clip-path="url(#_clip9)">
                <g transform="matrix(1.9306,0,0,2.17276,-1387.76,-275.22)">
                    <path d="M882.906,442.624C901.049,533.983 835.089,474.267 830.59,503.96C824.837,527.872 848.054,588.945 861.211,586.008C874.367,583.072 905.914,510.237 909.53,486.34C912.082,469.47 895.722,440.238 882.906,442.624Z" style="fill:rgb(206,100,8);"/>
                </g>
                <g transform="matrix(1.9306,0,0,2.17276,-1387.76,-275.22)">
                    <path d="M795.044,460.923C820.159,427.704 835.241,432.872 870.029,432.669C875.744,425.162 842.411,414.029 829.335,415.879C816.258,417.729 797.285,436.261 791.57,443.768C788.036,448.411 791.525,465.577 795.044,460.923Z" style="fill:rgb(248,174,88);"/>
                </g>
            </g>
            <path d="M126.131,777.755C127.055,704.738 152.042,625.204 212.67,619.171C297.976,620.905 368.178,696.542 368.178,793.135C368.178,844.096 340.557,948.465 282.33,993.894C264.97,1007.44 265.156,888.47 240.108,845.646C198.938,775.257 126.947,777.035 126.131,777.755Z" style="fill:none;stroke:black;stroke-width:40.43px;"/>
        </g>
        <g transform="matrix(1.10744,0,0,1.02114,-53.3396,1.50367)">
            <path d="M445.739,609.919C445.751,595.39 474.649,622.093 513.75,617.445C560.179,611.925 567.569,580.787 580.157,593.376C592.516,621.033 556.32,668.807 521.547,672.85C487.522,676.807 445.707,648.467 445.739,609.919Z"/>
            <clipPath id="_clip10">
                <path d="M445.739,609.919C445.751,595.39 474.649,622.093 513.75,617.445C560.179,611.925 567.569,580.787 580.157,593.376C592.516,621.033 556.32,668.807 521.547,672.85C487.522,676.807 445.707,648.467 445.739,609.919Z"/>
            </clipPath>
            <g clip-path="url(#_clip10)">
                <g transform="matrix(1.34612,0,0,0.815033,-177.122,106.743)">
                    <circle cx="513.554" cy="701.02" r="49.694" style="fill:rgb(239,120,9);"/>
                </g>
            </g>
            <path d="M445.739,609.919C445.751,595.39 474.649,622.093 513.75,617.445C560.179,611.925 567.569,580.787 580.157,593.376C592.516,621.033 556.32,668.807 521.547,672.85C487.522,676.807 445.707,648.467 445.739,609.919Z" style="fill:none;stroke:black;stroke-width:7.9px;"/>
        </g>
        <g>
            <g transform="matrix(0.976339,0,0,1.25717,25.4908,-127.816)">
                <circle cx="381.786" cy="533.117" r="51.925"/>
                <clipPath id="_clip11">
                    <circle cx="381.786" cy="533.117" r="51.925"/>
                </clipPath>
                <g clip-path="url(#_clip11)">
                    <g transform="matrix(0.385202,0,0,0.349127,232.848,328.863)">
                        <circle cx="381.786" cy="533.117" r="51.925" style="fill:white;"/>
                    </g>
                </g>
            </g>
            <g transform="matrix(0.909603,-0.0753653,0.0970432,1.17124,205.941,-74.4647)">
                <circle cx="381.786" cy="533.117" r="51.925"/>
                <clipPath id="_clip12">
                    <circle cx="381.786" cy="533.117" r="51.925"/>
                </clipPath>
                <g clip-path="url(#_clip12)">
                    <g transform="matrix(0.388231,0.0249814,-0.0370132,0.346931,246.885,318.744)">
                        <circle cx="381.786" cy="533.117" r="51.925" style="fill:white;"/>
                    </g>
                </g>
            </g>
        </g>
    </g>
</svg>
